<?xml version="1.0" encoding="iso-8859-1"?>
<!-- Generator: Adobe Illustrator 19.0.0, SVG Export Plug-In . SVG Version: 6.00 Build 0)  -->
<svg version="1.1" id="Capa_1" xmlns="http://www.w3.org/2000/svg" xmlns:xlink="http://www.w3.org/1999/xlink" x="0px" y="0px"
	 viewBox="0 0 512 512" style="enable-background:new 0 0 512 512;" xml:space="preserve">
<g>
	<g>
		<path d="M481.72,0H30.28C13.582,0,0,13.582,0,30.28V481.72C0,498.413,13.582,512,30.28,512H481.72
			c16.692,0,30.28-13.587,30.28-30.28V30.28C512,13.582,498.413,0,481.72,0z M495.484,481.72c0,7.592-6.172,13.763-13.763,13.763
			H30.28c-7.586,0-13.763-6.172-13.763-13.763V30.28c0-7.586,6.177-13.763,13.763-13.763H481.72c7.592,0,13.763,6.177,13.763,13.763
			V481.72z"/>
	</g>
</g>
<g>
	<g>
		<path d="M338.581,0c-4.558,0-8.258,3.694-8.258,8.258v412.903c0,4.558,3.7,8.258,8.258,8.258c4.558,0,8.258-3.7,8.258-8.258V8.258
			C346.839,3.694,343.139,0,338.581,0z"/>
	</g>
</g>
<g>
	<g>
		<path d="M503.742,82.581H338.581c-4.558,0-8.258,3.694-8.258,8.258c0,4.564,3.7,8.258,8.258,8.258h165.161
			c4.558,0,8.258-3.694,8.258-8.258C512,86.275,508.3,82.581,503.742,82.581z"/>
	</g>
</g>
<g>
	<g>
		<path d="M503.742,165.161H338.581c-4.558,0-8.258,3.694-8.258,8.258c0,4.564,3.7,8.258,8.258,8.258h165.161
			c4.558,0,8.258-3.694,8.258-8.258S508.3,165.161,503.742,165.161z"/>
	</g>
</g>
<g>
	<g>
		<path d="M503.742,247.742H338.581c-4.558,0-8.258,3.694-8.258,8.258c0,4.558,3.7,8.258,8.258,8.258h165.161
			c4.558,0,8.258-3.7,8.258-8.258C512,251.436,508.3,247.742,503.742,247.742z"/>
	</g>
</g>
<g>
	<g>
		<path d="M503.742,330.323H338.581c-4.558,0-8.258,3.7-8.258,8.258c0,4.558,3.7,8.258,8.258,8.258h165.161
			c4.558,0,8.258-3.7,8.258-8.258C512,334.022,508.3,330.323,503.742,330.323z"/>
	</g>
</g>
<g>
	<g>
		<path d="M503.742,412.903H338.581c-4.558,0-8.258,3.7-8.258,8.258s3.7,8.258,8.258,8.258h165.161c4.558,0,8.258-3.7,8.258-8.258
			S508.3,412.903,503.742,412.903z"/>
	</g>
</g>
<g>
	<g>
		<path d="M173.419,0c-4.564,0-8.258,3.694-8.258,8.258v495.484c0,4.558,3.694,8.258,8.258,8.258c4.564,0,8.258-3.7,8.258-8.258
			V8.258C181.677,3.694,177.983,0,173.419,0z"/>
	</g>
</g>
<g>
	<g>
		<path d="M200.946,247.742c-4.564,0-8.258,3.694-8.258,8.258v27.527c0,4.558,3.694,8.258,8.258,8.258s8.258-3.7,8.258-8.258V256
			C209.204,251.436,205.51,247.742,200.946,247.742z"/>
	</g>
</g>
<g>
	<g>
		<path d="M145.892,247.742c-4.564,0-8.258,3.694-8.258,8.258v27.527c0,4.558,3.694,8.258,8.258,8.258s8.258-3.7,8.258-8.258V256
			C154.151,251.436,150.456,247.742,145.892,247.742z"/>
	</g>
</g>
<g>
	<g>
		<path d="M338.581,412.903c-4.558,0-8.258,3.7-8.258,8.258v82.581c0,4.558,3.7,8.258,8.258,8.258c4.558,0,8.258-3.7,8.258-8.258
			v-82.581C346.839,416.603,343.139,412.903,338.581,412.903z"/>
	</g>
</g>
<g>
	<g>
		<path d="M421.161,440.705c-4.558,0-8.258,3.975-8.258,8.533s3.7,8.258,8.258,8.258s8.258-3.7,8.258-8.258v-0.551
			C429.419,444.13,425.72,440.705,421.161,440.705z"/>
	</g>
</g>
<g>
	<g>
		<path d="M421.161,357.574c-4.558,0-8.258,3.975-8.258,8.533s3.7,8.258,8.258,8.258s8.258-3.7,8.258-8.258v-0.551
			C429.419,360.999,425.72,357.574,421.161,357.574z"/>
	</g>
</g>
<g>
</g>
<g>
</g>
<g>
</g>
<g>
</g>
<g>
</g>
<g>
</g>
<g>
</g>
<g>
</g>
<g>
</g>
<g>
</g>
<g>
</g>
<g>
</g>
<g>
</g>
<g>
</g>
<g>
</g>
</svg>
